<svg id="Capa_1" enable-background="new 0 0 512.001 512.001" height="512" viewBox="0 0 512.001 512.001" width="512" xmlns="http://www.w3.org/2000/svg"><g><g><path d="m201.869 132.545h108.16c-15.449-36.995 2.169-71.665 16.746-88.87h-141.652c14.576 17.204 32.194 51.875 16.746 88.87z" fill="#d8694b"/><path d="m228.123 43.675h-43c14.576 17.205 32.194 51.875 16.746 88.87h43c15.448-36.995-2.17-71.665-16.746-88.87z" fill="#c5573a"/><path d="m470.688 84.261-3.664-3.352c-7.589-6.942-19.369-6.418-26.311 1.17l-59.457 64.806c12.615 6.437 24.179 14.913 34.192 25.163l56.411-61.476c6.942-7.588 6.418-19.368-1.171-26.311z" fill="#d8694b"/><path d="m130.642 146.886-59.458-64.807c-6.943-7.589-18.723-8.112-26.311-1.17l-3.664 3.352c-7.589 6.942-8.112 18.722-1.17 26.311l56.411 61.476c10.013-10.249 21.577-18.725 34.192-25.162z" fill="#d8694b"/><path d="m420.056 135.477 48.651-53.028-1.683-1.54c-7.589-6.942-19.369-6.418-26.311 1.17l-59.458 64.807c12.615 6.437 24.179 14.913 34.192 25.163l12.591-13.721c-1.836-1.36-3.705-2.671-5.606-3.933-6.432-4.268-7.595-13.23-2.376-18.918z" fill="#c5573a"/><path d="m68.372 110.572c-6.942-7.589-6.418-19.369 1.17-26.311l1.981-1.813-.339-.37c-6.943-7.588-18.723-8.112-26.311-1.17l-3.664 3.352c-7.589 6.942-8.112 18.722-1.17 26.311l56.411 61.476c4.895-5.01 10.165-9.59 15.743-13.721z" fill="#c5573a"/><path d="m342.058 7.327h-172.218c-9.343 0-16.918 7.574-16.918 16.918v4.511c0 9.343 7.574 16.918 16.918 16.918h172.218c9.343 0 16.918-7.574 16.918-16.918v-4.511c-.001-9.343-7.575-16.918-16.918-16.918z" fill="#df7f66"/><path d="m195.922 28.757v-4.511c0-9.343 7.574-16.918 16.918-16.918h-43c-9.343 0-16.918 7.574-16.918 16.918v4.511c0 9.343 7.574 16.918 16.918 16.918h43c-9.344-.001-16.918-7.575-16.918-16.918z" fill="#d8694b"/><path d="m452.599 237.949c-2.879-15.645-8.61-30.881-17.218-44.886h-358.865c-8.607 14.006-14.338 29.241-17.218 44.886z" fill="#d8694b"/><path d="m159.985 193.063h-83.469c-8.607 14.006-14.338 29.241-17.218 44.886h82.872c.692-3.338 1.522-6.659 2.51-9.951 4.006-13.357 9.276-24.922 15.305-34.935z" fill="#c5573a"/><path d="m103.943 370.919 30.533 44.887h242.945l30.533-44.887z" fill="#d8694b"/><path d="m209.071 415.806-25.48-44.887h-79.648l30.533 44.887z" fill="#c5573a"/><path d="m437.1 195.909c-1.76-3.033-3.644-6.016-5.666-8.934-24.5-35.344-64.772-56.431-107.778-56.431h-133.772c-41.062 0-80.295 18.428-105.392 50.927-3.585 4.643-6.798 9.472-9.68 14.438z" fill="#df7f66"/><path d="m84.492 181.471c-3.585 4.643-6.798 9.472-9.68 14.438h83.506c31.843-55.792 87.354-65.365 87.354-65.365h-55.788c-41.062.001-80.294 18.428-105.392 50.927z" fill="#d8694b"/><path d="m132.54 412.959 50.661 74.476c7.188 10.568 19.141 16.894 31.922 16.894h81.651c12.781 0 24.734-6.325 31.922-16.894l50.661-74.476z" fill="#df7f66"/><path d="m207.455 412.959h-74.915l50.661 74.476c7.188 10.568 19.141 16.894 31.922 16.894h44.197z" fill="#d8694b"/><path d="m79.811 335.442 25.917 38.1h300.442l25.917-38.1c20.342-29.904 26.988-66.097 20.016-100.116h-392.308c-6.972 34.019-.326 70.212 20.016 100.116z" fill="#c5573a"/><path d="m59.795 235.326c-6.972 34.02-.326 70.212 20.016 100.116l25.917 38.1h79.353l-29.678-52.282c-14.836-26.136-19.383-56.835-12.657-85.935h-82.951z" fill="#a94b30"/></g><path d="m475.802 78.9-3.664-3.352c-10.629-9.723-27.185-8.986-36.908 1.641l-53.687 58.686c-17.896-8.217-37.579-12.658-57.835-12.658h-8.441c-2.02-5.914-3.225-11.901-3.562-17.859-.235-4.136-3.783-7.311-7.912-7.064-4.136.234-7.298 3.776-7.064 7.912.322 5.688 1.271 11.378 2.83 17.011h-87.109c7.961-28.673-1.632-53.185-12.39-69.87h111.845c-3.045 4.701-5.663 9.511-7.83 14.392-1.68 3.786.026 8.217 3.813 9.898 3.788 1.68 8.217-.026 9.898-3.812 3.109-7.006 7.34-13.881 12.589-20.478h11.734c13.464 0 24.418-10.954 24.418-24.418v-4.511c0-13.464-10.954-24.418-24.418-24.418h-172.218c-13.464 0-24.418 10.954-24.418 24.418v4.511c0 13.464 10.954 24.418 24.418 24.418h11.733c13.105 16.447 25.013 40.951 15.108 69.87h-6.797c-20.703 0-40.939 4.53-59.277 12.878l-53.89-58.906c-9.728-10.633-26.23-11.408-36.905-1.642l-3.665 3.353c-10.627 9.723-11.363 26.28-1.642 36.907l49.752 54.382c-1.97 2.224-3.877 4.51-5.699 6.87-36.805 47.658-38.688 113.053-5.031 162.646.028.042.054.085.083.127 5.469 8.04 98.152 144.291 103.391 151.992 8.593 12.633 22.845 20.175 38.123 20.175h81.651c15.278 0 29.53-7.542 38.123-20.175.436-.641 103.416-152.031 103.416-152.031 15.275-22.475 24.108-49.6 23.98-78.547-.152-34.582-13.002-66.51-34.646-91.064l49.745-54.376c9.723-10.627 8.986-27.183-1.642-36.906zm-305.911-40.553c-5.193 0-9.418-4.225-9.418-9.418v-4.511c0-5.193 4.225-9.418 9.418-9.418h172.218c5.193 0 9.418 4.225 9.418 9.418v4.511c0 5.193-4.225 9.418-9.418 9.418-7.884 0-167.937 0-172.218 0zm-124.266 67.336c-4.141-4.525-3.826-11.575.697-15.714l3.666-3.353c4.534-4.146 11.565-3.837 15.714.699l51.05 55.802c-7.833 4.717-15.165 10.188-21.919 16.356zm276.922 377.706c-5.798 8.523-15.413 13.612-25.721 13.612h-81.651c-10.308 0-19.923-5.088-25.721-13.612l-40.754-59.911h214.6zm50.957-74.911h-235.007l-18.546-27.263h272.099zm28.749-42.263h-292.505l-10.007-14.711h23.866c4.143 0 7.5-3.358 7.5-7.5v-71.294h53.552v24.396h-22.766c-4.143 0-7.5 3.358-7.5 7.5v39.396c0 4.142 3.357 7.5 7.5 7.5h68.913c4.143 0 7.5-3.358 7.5-7.5v-71.292h53.552v24.396h-22.767c-4.143 0-7.5 3.358-7.5 7.5v39.396c0 4.142 3.357 7.5 7.5 7.5h68.914c4.143 0 7.5-3.358 7.5-7.5v-71.292h53.552v24.396h-22.767c-4.143 0-7.5 3.358-7.5 7.5v39.396c0 4.142 3.357 7.5 7.5 7.5h35.969zm23.684-34.819-3.474 5.107h-38.673v-24.396h22.767c4.143 0 7.5-3.358 7.5-7.5v-39.397c0-4.142-3.357-7.5-7.5-7.5h-68.552c-4.143 0-7.5 3.358-7.5 7.5v71.293h-53.914v-24.396h22.767c4.143 0 7.5-3.358 7.5-7.5v-39.397c0-4.142-3.357-7.5-7.5-7.5h-68.552c-4.143 0-7.5 3.358-7.5 7.5v71.293h-53.913v-24.396h22.766c4.143 0 7.5-3.358 7.5-7.5v-39.397c0-4.142-3.357-7.5-7.5-7.5h-68.552c-4.143 0-7.5 3.358-7.5 7.5v71.293h-26.569l-3.474-5.107c-17.304-25.432-24.71-57.294-19.943-88.397h379.643c4.908 32.256-3.317 64.811-19.827 88.397zm5.212-130.661c4.917 8.674 8.703 17.834 11.357 27.263h-373.143c2.687-9.409 6.515-18.563 11.475-27.263h157.663c4.143 0 7.5-3.358 7.5-7.5s-3.357-7.5-7.5-7.5h-147.627c23.24-29.763 60.218-47.518 99.063-47.518h133.771c37.277 0 73.59 17.018 97.419 47.518h-147.626c-4.143 0-7.5 3.358-7.5 7.5s3.357 7.5 7.5 7.5zm35.227-95.052-49.207 53.79c-6.987-6.372-14.536-11.916-21.915-16.362l51.043-55.796c4.141-4.525 11.189-4.838 15.716-.699l3.664 3.352c4.537 4.15 4.849 11.178.699 15.715z"/></g></svg>